<svg xmlns="http://www.w3.org/2000/svg" viewBox="0 0 640 360" role="img" aria-label="Concept physio clinic website preview">
  <rect width="640" height="360" rx="16" fill="#f9f9f9" />
  <rect x="18" y="18" width="604" height="324" rx="12" fill="#ffffff" stroke="#d4d4d4" stroke-width="2" />
  <rect x="32" y="32" width="576" height="40" rx="8" fill="#111111" />
  <text x="48" y="58" font-family="DM Sans, Arial" font-size="14" fill="#ffffff">Physio Clinic</text>
  <rect x="32" y="88" width="250" height="150" rx="10" fill="#e5e5e5" stroke="#cfcfcf" />
  <rect x="298" y="92" width="310" height="22" rx="6" fill="#cfcfcf" />
  <rect x="298" y="120" width="270" height="14" rx="6" fill="#d9d9d9" />
  <rect x="298" y="142" width="230" height="14" rx="6" fill="#e2e2e2" />
  <rect x="298" y="168" width="200" height="14" rx="6" fill="#e2e2e2" />
  <rect x="298" y="196" width="140" height="30" rx="8" fill="#111111" />
  <text x="310" y="216" font-family="DM Sans, Arial" font-size="12" fill="#ffffff">Book an appointment</text>
  <rect x="32" y="252" width="576" height="78" rx="10" fill="#f1f1f1" stroke="#dcdcdc" />
  <rect x="48" y="270" width="160" height="12" rx="6" fill="#cfcfcf" />
  <rect x="48" y="292" width="220" height="12" rx="6" fill="#d9d9d9" />
  <rect x="48" y="312" width="140" height="12" rx="6" fill="#e2e2e2" />
</svg>
