<svg xmlns="http://www.w3.org/2000/svg" viewBox="0 0 640 360" role="img" aria-label="Concept bakery website preview">
  <rect width="640" height="360" rx="16" fill="#f9f9f9" />
  <rect x="18" y="18" width="604" height="324" rx="12" fill="#ffffff" stroke="#d4d4d4" stroke-width="2" />
  <rect x="32" y="32" width="576" height="40" rx="8" fill="#111111" />
  <text x="48" y="58" font-family="DM Sans, Arial" font-size="14" fill="#ffffff">Artisan Bakery</text>
  <rect x="32" y="88" width="576" height="110" rx="10" fill="#e5e5e5" stroke="#cfcfcf" />
  <rect x="52" y="112" width="220" height="16" rx="6" fill="#cfcfcf" />
  <rect x="52" y="136" width="320" height="14" rx="6" fill="#d9d9d9" />
  <rect x="52" y="158" width="260" height="14" rx="6" fill="#e2e2e2" />
  <rect x="32" y="214" width="276" height="116" rx="10" fill="#f1f1f1" stroke="#dcdcdc" />
  <rect x="332" y="214" width="276" height="116" rx="10" fill="#f1f1f1" stroke="#dcdcdc" />
  <rect x="52" y="234" width="140" height="12" rx="6" fill="#cfcfcf" />
  <rect x="352" y="234" width="160" height="12" rx="6" fill="#cfcfcf" />
  <rect x="52" y="256" width="180" height="12" rx="6" fill="#d9d9d9" />
  <rect x="352" y="256" width="120" height="12" rx="6" fill="#d9d9d9" />
</svg>
